<?xml version="1.0" encoding="UTF-8" standalone="no"?>
<!-- Created with Inkscape (http://www.inkscape.org/) -->

<svg
   xmlns:dc="http://purl.org/dc/elements/1.1/"
   xmlns:cc="http://creativecommons.org/ns#"
   xmlns:rdf="http://www.w3.org/1999/02/22-rdf-syntax-ns#"
   xmlns:svg="http://www.w3.org/2000/svg"
   xmlns="http://www.w3.org/2000/svg"
   xmlns:xlink="http://www.w3.org/1999/xlink"
   version="1.1"
   width="6016"
   height="960"
   id="svg2985">
  <metadata
     id="metadata2991">
    <rdf:RDF>
      <cc:Work
         rdf:about="">
        <dc:format>image/svg+xml</dc:format>
        <dc:type
           rdf:resource="http://purl.org/dc/dcmitype/StillImage" />
        <dc:title></dc:title>
      </cc:Work>
    </rdf:RDF>
  </metadata>
  <defs
     id="defs2989" />
  <image
     xlink:href="file:///C:/Users/Wout/Desktop/School/Programming%202/Labo/Project/Oplossing/1DAE2_DePuysseleir_Wout/CODE/HocusPocus/Resources/MapCollision.bmp"
     x="0"
     y="0"
     width="6016"
     height="960"
     id="image2993" />
  <path
     d="m 3008,960 -3008,0 0,-16 0,-16 128,0 128,0 0,-16 0,-16 16,0 16,0 0,-16 0,-16 16,0 16,0 0,-16 0,-16 16,0 16,0 0,-16 0,-16 304,0 304,0 0,16 0,16 -208,0 -208,0 0,16 0,16 -16,0 -16,0 0,32 0,32 432,0 432,0 0,-16 0,-16 16,0 16,0 0,-16 0,-16 -16,0 -16,0 0,-16 0,-16 -112,0 -112,0 0,16 0,16 -48,0 -48,0 0,-16 0,-16 32,0 32,0 0,-16 0,-16 192,0 192,0 0,16 0,16 16,0 16,0 0,16 0,16 -16,0 -16,0 0,16 0,16 16,0 16,0 0,16 0,16 272,0 272,0 0,-16 0,-16 16,0 16,0 0,-16 0,-16 -16,0 -16,0 0,-16 0,-16 16,0 16,0 0,-16 0,-16 -16,0 -16,0 0,-16 0,-16 -64,0 -64,0 0,16 0,16 -16,0 -16,0 0,32 0,32 -144,0 -144,0 0,-16 0,-16 112,0 112,0 0,-16 0,-16 16,0 16,0 0,-16 0,-16 -96,0 -96,0 0,-16 0,-16 208,0 208,0 0,-80 0,-80 -192,0 -192,0 0,-16 0,-16 256,0 256,0 0,16 0,16 16,0 16,0 0,16 0,16 -32,0 -32,0 0,80 0,80 16,0 16,0 0,16 0,16 16,0 16,0 0,16 0,16 16,0 16,0 0,16 0,16 16,0 16,0 0,16 0,16 16,0 16,0 0,16 0,16 384,0 384,0 0,-16 0,-16 96,0 96,0 0,-16 0,-16 16,0 16,0 0,-16 0,-16 16,0 16,0 0,-16 0,-16 16,0 16,0 0,-16 0,-16 16,0 16,0 0,-16 0,-16 16,0 16,0 0,-16 0,-16 48,0 48,0 0,-48 0,-48 -16,0 -16,0 0,-16 0,-16 -16,0 -16,0 0,-16 0,-16 -16,0 -16,0 0,-16 0,-16 -16,0 -16,0 0,-16 0,-16 -16,0 -16,0 0,-16 0,-16 256,0 256,0 0,16 0,16 16,0 16,0 0,16 0,16 16,0 16,0 0,16 0,16 16,0 16,0 0,16 0,16 16,0 16,0 0,16 0,16 -16,0 -16,0 0,16 0,16 -16,0 -16,0 0,16 0,16 -80,0 -80,0 0,16 0,16 -16,0 -16,0 0,16 0,16 -16,0 -16,0 0,16 0,16 -128,0 -128,0 0,48 0,48 192,0 192,0 0,16 0,16 16,0 16,0 0,16 0,16 144,0 144,0 0,-16 0,-16 160,0 160,0 0,-16 0,-16 16,0 16,0 0,-16 0,-16 -16,0 -16,0 0,-16 0,-16 -128,0 -128,0 0,-16 0,-16 384,0 384,0 0,16 0,16 16,0 16,0 0,16 0,16 16,0 16,0 0,16 0,16 16,0 16,0 0,16 0,16 16,0 16,0 0,16 0,16 272,0 272,0 0,-112 0,-112 -608,0 -608,0 0,-16 0,-16 16,0 16,0 0,-160 0,-160 -544,0 -544,0 0,-128 0,-128 -1472,0 -1472,0 0,112 0,112 464,0 464,0 0,-16 0,-16 -16,0 -16,0 0,-16 0,-16 -400,0 -400,0 0,-16 0,-16 496,0 496,0 0,16 0,16 16,0 16,0 0,16 0,16 -16,0 -16,0 0,16 0,16 368,0 368,0 0,16 0,16 16,0 16,0 0,16 0,16 16,0 16,0 0,16 0,16 16,0 16,0 0,16 0,16 64,0 64,0 0,-16 0,-16 48,0 48,0 0,16 0,16 176,0 176,0 0,-16 0,-16 48,0 48,0 0,16 0,16 64,0 64,0 0,16 0,16 16,0 16,0 0,16 0,16 16,0 16,0 0,16 0,16 16,0 16,0 0,16 0,16 16,0 16,0 0,16 0,16 16,0 16,0 0,16 0,16 16,0 16,0 0,16 0,16 -144,0 -144,0 0,-96 0,-96 -384,0 -384,0 0,-16 0,-16 -16,0 -16,0 0,-16 0,-16 -16,0 -16,0 0,-16 0,-16 -16,0 -16,0 0,-16 0,-16 -336,0 -336,0 0,16 0,16 16,0 16,0 0,16 0,16 -16,0 -16,0 0,16 0,16 16,0 16,0 0,16 0,16 -16,0 -16,0 0,16 0,16 16,0 16,0 0,16 0,16 -16,0 -16,0 0,16 0,16 16,0 16,0 0,16 0,16 16,0 16,0 0,16 0,16 176,0 176,0 0,16 0,16 -208,0 -208,0 0,16 0,16 -128,0 -128,0 0,16 0,16 -32,0 -32,0 0,-16 0,-16 16,0 16,0 0,-16 0,-16 16,0 16,0 0,-16 0,-16 16,0 16,0 0,-16 0,-16 16,0 16,0 0,-16 0,-16 16,0 16,0 0,-16 0,-16 -16,0 -16,0 0,-16 0,-16 16,0 16,0 0,-16 0,-16 -16,0 -16,0 0,-16 0,-16 16,0 16,0 0,-16 0,-16 -16,0 -16,0 0,-16 0,-16 16,0 16,0 0,-16 0,-16 -464,0 -464,0 0,96 0,96 384,0 384,0 0,16 0,16 -384,0 -384,0 0,48 0,48 -64,0 -64,0 0,-16 0,-16 -16,0 -16,0 0,-16 0,-16 16,0 16,0 0,-16 0,-16 -16,0 -16,0 0,-16 0,-16 16,0 16,0 0,-16 0,-16 -16,0 -16,0 0,-16 0,-16 16,0 16,0 0,-16 0,-16 -16,0 -16,0 0,-16 0,-16 16,0 16,0 0,-16 0,-16 -16,0 -16,0 0,-16 0,-16 16,0 16,0 0,-16 0,-16 -16,0 -16,0 0,-16 0,-16 16,0 16,0 0,-16 0,-16 -16,0 -16,0 0,-16 0,-16 16,0 16,0 0,-16 0,-16 -16,0 -16,0 0,-16 0,-16 16,0 16,0 0,-16 0,-16 -16,0 -16,0 0,-16 0,-16 16,0 16,0 0,-16 0,-16 -16,0 -16,0 0,-16 0,-16 16,0 16,0 0,-16 0,-16 2816,0 2816,0 0,480 0,480 -3008,0 z m -496,-96 -48,0 0,-16 0,-16 48,0 48,0 0,16 0,16 -48,0 z m 160,0 -48,0 0,-16 0,-16 48,0 48,0 0,16 0,16 -48,0 z m 160,0 -48,0 0,-16 0,-16 48,0 48,0 0,16 0,16 -48,0 z m 160,0 -48,0 0,-16 0,-16 48,0 48,0 0,16 0,16 -48,0 z m 1104,0 -64,0 0,-16 0,-16 64,0 64,0 0,16 0,16 -64,0 z m -1776,-160 -48,0 0,-16 0,-16 16,0 16,0 0,-16 0,-16 16,0 16,0 0,-16 0,-16 16,0 16,0 0,48 0,48 -48,0 z m 2064,-64 -64,0 0,-16 0,-16 64,0 64,0 0,16 0,16 -64,0 z"
     id="path2995"
     style="fill:#000000" />
</svg>
